<svg aria-hidden="true" version="1.1" xmlns="http://www.w3.org/2000/svg" xmlns:xlink="http://www.w3.org/1999/xlink">
<defs>
<symbol id="icon-happy-face" viewBox="0 0 512 512"><circle cx="184" cy="232" r="24"></circle><path d="M256.05 384c-45.42 0-83.62-29.53-95.71-69.83a8 8 0 017.82-10.17h175.69a8 8 0 017.82 10.17c-11.99 40.3-50.2 69.83-95.62 69.83z"></path><circle cx="328" cy="232" r="24"></circle><circle cx="256" cy="256" r="208" fill="none" stroke="currentColor" stroke-miterlimit="10" stroke-width="32"></circle>
</symbol>
<symbol id="icon-newspaper" viewBox="0 0 512 512"><path d="M439.91 112h-23.82a.09.09 0 00-.09.09V416a32 32 0 0032 32 32 32 0 0032-32V152.09A40.09 40.09 0 00439.91 112z"></path><path d="M384 416V72a40 40 0 00-40-40H72a40 40 0 00-40 40v352a56 56 0 0056 56h342.85a1.14 1.14 0 001.15-1.15 1.14 1.14 0 00-.85-1.1A64.11 64.11 0 01384 416zM96 128a16 16 0 0116-16h64a16 16 0 0116 16v64a16 16 0 01-16 16h-64a16 16 0 01-16-16zm208 272H112.45c-8.61 0-16-6.62-16.43-15.23A16 16 0 01112 368h191.55c8.61 0 16 6.62 16.43 15.23A16 16 0 01304 400zm0-64H112.45c-8.61 0-16-6.62-16.43-15.23A16 16 0 01112 304h191.55c8.61 0 16 6.62 16.43 15.23A16 16 0 01304 336zm0-64H112.45c-8.61 0-16-6.62-16.43-15.23A16 16 0 01112 240h191.55c8.61 0 16 6.62 16.43 15.23A16 16 0 01304 272zm0-64h-63.55c-8.61 0-16-6.62-16.43-15.23A16 16 0 01240 176h63.55c8.61 0 16 6.62 16.43 15.23A16 16 0 01304 208zm0-64h-63.55c-8.61 0-16-6.62-16.43-15.23A16 16 0 01240 112h63.55c8.61 0 16 6.62 16.43 15.23A16 16 0 01304 144z"></path>
</symbol>
<symbol id="icon-alert-circle" viewBox="0 0 512 512"><path d="M448 256c0-106-86-192-192-192S64 150 64 256s86 192 192 192 192-86 192-192z" fill="none" stroke="currentColor" stroke-miterlimit="10" stroke-width="32"></path><path d="M250.26 166.05L256 288l5.73-121.95a5.74 5.74 0 00-5.79-6h0a5.74 5.74 0 00-5.68 6z" fill="none" stroke="currentColor" stroke-linecap="round" stroke-linejoin="round" stroke-width="32"></path><path d="M256 367.91a20 20 0 1120-20 20 20 0 01-20 20z"></path>
</symbol>
<symbol id="icon-time" viewBox="0 0 512 512"><path d="M256 48C141.13 48 48 141.13 48 256s93.13 208 208 208 208-93.13 208-208S370.87 48 256 48zm96 240h-96a16 16 0 01-16-16V128a16 16 0 0132 0v128h80a16 16 0 010 32z"></path>
</symbol>
<symbol id="icon-search" viewBox="0 0 512 512"><path d="M456.69 421.39L362.6 327.3a173.81 173.81 0 0034.84-104.58C397.44 126.38 319.06 48 222.72 48S48 126.38 48 222.72s78.38 174.72 174.72 174.72A173.81 173.81 0 00327.3 362.6l94.09 94.09a25 25 0 0035.3-35.3zM97.92 222.72a124.8 124.8 0 11124.8 124.8 124.95 124.95 0 01-124.8-124.8z"></path>
</symbol>
<symbol id="icon-earth" viewBox="0 0 512 512"><path d="M414.39 97.74A224 224 0 1097.61 414.52 224 224 0 10414.39 97.74zM64 256.13a191.63 191.63 0 016.7-50.31c7.34 15.8 18 29.45 25.25 45.66 9.37 20.84 34.53 15.06 45.64 33.32 9.86 16.21-.67 36.71 6.71 53.67 5.36 12.31 18 15 26.72 24 8.91 9.08 8.72 21.52 10.08 33.36a305.36 305.36 0 007.45 41.27c0 .1 0 .21.08.31C117.8 411.13 64 339.8 64 256.13zm192 192a193.12 193.12 0 01-32-2.68c.11-2.71.16-5.24.43-7 2.43-15.9 10.39-31.45 21.13-43.35 10.61-11.74 25.15-19.68 34.11-33 8.78-13 11.41-30.5 7.79-45.69-5.33-22.44-35.82-29.93-52.26-42.1-9.45-7-17.86-17.82-30.27-18.7-5.72-.4-10.51.83-16.18-.63-5.2-1.35-9.28-4.15-14.82-3.42-10.35 1.36-16.88 12.42-28 10.92-10.55-1.41-21.42-13.76-23.82-23.81-3.08-12.92 7.14-17.11 18.09-18.26 4.57-.48 9.7-1 14.09.68 5.78 2.14 8.51 7.8 13.7 10.66 9.73 5.34 11.7-3.19 10.21-11.83-2.23-12.94-4.83-18.21 6.71-27.12 8-6.14 14.84-10.58 13.56-21.61-.76-6.48-4.31-9.41-1-15.86 2.51-4.91 9.4-9.34 13.89-12.27 11.59-7.56 49.65-7 34.1-28.16-4.57-6.21-13-17.31-21-18.83-10-1.89-14.44 9.27-21.41 14.19-7.2 5.09-21.22 10.87-28.43 3-9.7-10.59 6.43-14.06 10-21.46 1.65-3.45 0-8.24-2.78-12.75q5.41-2.28 11-4.23a15.6 15.6 0 008 3c6.69.44 13-3.18 18.84 1.38 6.48 5 11.15 11.32 19.75 12.88 8.32 1.51 17.13-3.34 19.19-11.86 1.25-5.18 0-10.65-1.2-16a190.83 190.83 0 01105 32.21c-2-.76-4.39-.67-7.34.7-6.07 2.82-14.67 10-15.38 17.12-.81 8.08 11.11 9.22 16.77 9.22 8.5 0 17.11-3.8 14.37-13.62-1.19-4.26-2.81-8.69-5.42-11.37a193.27 193.27 0 0118 14.14c-.09.09-.18.17-.27.27-5.76 6-12.45 10.75-16.39 18.05-2.78 5.14-5.91 7.58-11.54 8.91-3.1.73-6.64 1-9.24 3.08-7.24 5.7-3.12 19.4 3.74 23.51 8.67 5.19 21.53 2.75 28.07-4.66 5.11-5.8 8.12-15.87 17.31-15.86a15.4 15.4 0 0110.82 4.41c3.8 3.94 3.05 7.62 3.86 12.54 1.43 8.74 9.14 4 13.83-.41a192.12 192.12 0 019.24 18.77c-5.16 7.43-9.26 15.53-21.67 6.87-7.43-5.19-12-12.72-21.33-15.06-8.15-2-16.5.08-24.55 1.47-9.15 1.59-20 2.29-26.94 9.22-6.71 6.68-10.26 15.62-17.4 22.33-13.81 13-19.64 27.19-10.7 45.57 8.6 17.67 26.59 27.26 46 26 19.07-1.27 38.88-12.33 38.33 15.38-.2 9.81 1.85 16.6 4.86 25.71 2.79 8.4 2.6 16.54 3.24 25.21a158 158 0 004.74 30.07A191.75 191.75 0 01256 448.13z"></path>
</symbol>
<symbol id="icon-sad-face" viewBox="0 0 512 512"><path d="M414.39 97.61A224 224 0 1097.61 414.39 224 224 0 10414.39 97.61zM184 208a24 24 0 11-24 24 23.94 23.94 0 0124-24zm-23.67 149.83c12-40.3 50.2-69.83 95.62-69.83s83.62 29.53 95.71 69.83a8 8 0 01-7.82 10.17H168.15a8 8 0 01-7.82-10.17zM328 256a24 24 0 1124-24 23.94 23.94 0 01-24 24z"></path>
</symbol>
<symbol id="icon-stats-chart" viewBox="0 0 512 512"><path d="M104 496H72a24 24 0 01-24-24V328a24 24 0 0124-24h32a24 24 0 0124 24v144a24 24 0 01-24 24zM328 496h-32a24 24 0 01-24-24V232a24 24 0 0124-24h32a24 24 0 0124 24v240a24 24 0 01-24 24zM440 496h-32a24 24 0 01-24-24V120a24 24 0 0124-24h32a24 24 0 0124 24v352a24 24 0 01-24 24zM216 496h-32a24 24 0 01-24-24V40a24 24 0 0124-24h32a24 24 0 0124 24v432a24 24 0 01-24 24z"></path></symbol>
<symbol id="icon-medkit" viewBox="0 0 512 512"><path d="M336 64H176a16 16 0 00-16 16v16h192V80a16 16 0 00-16-16z" fill="none"></path><path d="M432 96h-48V80a48.05 48.05 0 00-48-48H176a48.05 48.05 0 00-48 48v16H80a64.07 64.07 0 00-64 64v256a64 64 0 0064 64h352a64 64 0 0064-64V160a64.07 64.07 0 00-64-64zm-96 208h-64v64a16 16 0 01-32 0v-64h-64a16 16 0 010-32h64v-64a16 16 0 0132 0v64h64a16 16 0 010 32zm16-208H160V80a16 16 0 0116-16h160a16 16 0 0116 16z"></path></symbol>
<symbol id="icon-server" viewBox="0 0 512 512"><path d="M256 428c-52.35 0-111.39-11.61-157.93-31-17.07-7.19-31.69-18.82-43.64-28a4 4 0 00-6.43 3.18v12.58c0 28.07 23.49 53.22 66.14 70.82C152.29 471.33 202.67 480 256 480s103.7-8.67 141.86-24.42C440.51 438 464 412.83 464 384.76v-12.58a4 4 0 00-6.43-3.18c-11.95 9.17-26.57 20.81-43.65 28-46.54 19.39-105.57 31-157.92 31zM464 126.51c-.81-27.65-24.18-52.4-66-69.85C359.74 40.76 309.34 32 256 32s-103.74 8.76-141.91 24.66c-41.78 17.41-65.15 42.11-66 69.69L48 144c0 6.41 5.2 16.48 14.63 24.73 11.13 9.73 27.65 19.33 47.78 27.73C153.24 214.36 207.67 225 256 225s102.76-10.68 145.59-28.58c20.13-8.4 36.65-18 47.78-27.73C458.8 160.49 464 150.42 464 144z"></path><path d="M413.92 226c-46.53 19.43-105.57 31-157.92 31s-111.39-11.57-157.93-31c-17.07-7.15-31.69-18.79-43.64-28a4 4 0 00-6.43 3.22V232c0 6.41 5.2 14.48 14.63 22.73 11.13 9.74 27.65 19.33 47.78 27.74C153.24 300.34 207.67 311 256 311s102.76-10.68 145.59-28.57c20.13-8.41 36.65-18 47.78-27.74C458.8 246.47 464 238.41 464 232v-30.78a4 4 0 00-6.43-3.18c-11.95 9.17-26.57 20.81-43.65 27.96z"></path><path d="M413.92 312c-46.54 19.41-105.57 31-157.92 31s-111.39-11.59-157.93-31c-17.07-7.17-31.69-18.81-43.64-28a4 4 0 00-6.43 3.2V317c0 6.41 5.2 14.47 14.62 22.71 11.13 9.74 27.66 19.33 47.79 27.74C153.24 385.32 207.66 396 256 396s102.76-10.68 145.59-28.57c20.13-8.41 36.65-18 47.78-27.74C458.8 331.44 464 323.37 464 317v-29.8a4 4 0 00-6.43-3.18c-11.95 9.17-26.57 20.81-43.65 27.98z"></path></symbol>
<symbol id="icon-film" viewBox="0 0 512 512"><path d="M436 80H76a44.05 44.05 0 00-44 44v264a44.05 44.05 0 0044 44h360a44.05 44.05 0 0044-44V124a44.05 44.05 0 00-44-44zM112 388a12 12 0 01-12 12H76a12 12 0 01-12-12v-24a12 12 0 0112-12h24a12 12 0 0112 12zm0-80a12 12 0 01-12 12H76a12 12 0 01-12-12v-24a12 12 0 0112-12h24a12 12 0 0112 12zm0-80a12 12 0 01-12 12H76a12 12 0 01-12-12v-24a12 12 0 0112-12h24a12 12 0 0112 12zm0-80a12 12 0 01-12 12H76a12 12 0 01-12-12v-24a12 12 0 0112-12h24a12 12 0 0112 12zm241.68 124H158.32a16 16 0 010-32h195.36a16 16 0 110 32zM448 388a12 12 0 01-12 12h-24a12 12 0 01-12-12v-24a12 12 0 0112-12h24a12 12 0 0112 12zm0-80a12 12 0 01-12 12h-24a12 12 0 01-12-12v-24a12 12 0 0112-12h24a12 12 0 0112 12zm0-80a12 12 0 01-12 12h-24a12 12 0 01-12-12v-24a12 12 0 0112-12h24a12 12 0 0112 12zm0-80a12 12 0 01-12 12h-24a12 12 0 01-12-12v-24a12 12 0 0112-12h24a12 12 0 0112 12z"></path></symbol>
<symbol id="icon-football" viewBox="0 0 512 512"><path d="M256 48C141.31 48 48 141.31 48 256s93.31 208 208 208 208-93.31 208-208S370.69 48 256 48zm143 304h-45.22a8 8 0 01-6.91-4l-16.14-27.68a8 8 0 01-.86-6l14.86-59.92a8 8 0 014.65-5.45l28.1-11.9a8 8 0 018.34 1.3l41.63 35.82a8 8 0 012.69 7.26 174.75 174.75 0 01-24.28 66.68A8 8 0 01399 352zM134.52 237.13l28.1 11.9a8 8 0 014.65 5.45l14.86 59.92a8 8 0 01-.86 6L165.13 348a8 8 0 01-6.91 4H113a8 8 0 01-6.82-3.81 174.75 174.75 0 01-24.28-66.68 8 8 0 012.69-7.26l41.63-35.82a8 8 0 018.3-1.3zm256.94-87.24l-18.07 51.38A8 8 0 01369 206l-29.58 12.53a8 8 0 01-8.26-1.24L274.9 170.1a8 8 0 01-2.9-6.1v-33.58a8 8 0 013.56-6.65l42.83-28.54a8 8 0 017.66-.67A176.92 176.92 0 01390 142a8 8 0 011.46 7.89zM193.6 95.23l42.84 28.54a8 8 0 013.56 6.65V164a8 8 0 01-2.86 6.13l-56.26 47.19a8 8 0 01-8.26 1.24L143 206a8 8 0 01-4.43-4.72L120.5 149.9a8 8 0 011.5-7.9 176.92 176.92 0 0164-47.48 8 8 0 017.6.71zm17.31 327.46L191.18 373a8 8 0 01.52-7l15.17-26a8 8 0 016.91-4h84.44a8 8 0 016.91 4l15.18 26a8 8 0 01.53 7l-19.59 49.67a8 8 0 01-5.69 4.87 176.58 176.58 0 01-79 0 8 8 0 01-5.65-4.85z"></path></symbol>
<symbol id="icon-share-social" viewBox="0 0 512 512"><title>Share</title><path d="M384 336a63.78 63.78 0 00-46.12 19.7l-148-83.27a63.85 63.85 0 000-32.86l148-83.27a63.8 63.8 0 10-15.73-27.87l-148 83.27a64 64 0 100 88.6l148 83.27A64 64 0 10384 336z"></path></symbol>
<symbol id="icon-bookmark" viewBox="0 0 512 512"><path d="M400 480a16 16 0 01-10.63-4L256 357.41 122.63 476A16 16 0 0196 464V96a64.07 64.07 0 0164-64h192a64.07 64.07 0 0164 64v368a16 16 0 01-16 16z"></path></symbol>
<symbol id="icon-bookmark-outline" viewBox="0 0 512 512"><title>Bookmark</title><path d="M352 48H160a48 48 0 00-48 48v368l144-128 144 128V96a48 48 0 00-48-48z" fill="none" stroke="currentColor" stroke-linecap="round" stroke-linejoin="round" stroke-width="32"></path></symbol>
<symbol id="icon-location" viewBox="0 0 512 512"><path d="M256 48c-79.5 0-144 61.39-144 137 0 87 96 224.87 131.25 272.49a15.77 15.77 0 0025.5 0C304 409.89 400 272.07 400 185c0-75.61-64.5-137-144-137z" fill="none" stroke="currentColor" stroke-linecap="round" stroke-linejoin="round" stroke-width="32"></path><circle cx="256" cy="192" r="48" fill="none" stroke="currentColor" stroke-linecap="round" stroke-linejoin="round" stroke-width="32"></circle></symbol>
<symbol id="icon-clipboard" class="ionicon" viewBox="0 0 512 512"><title>Copy link</title><path d="M368 48h-11.41a8 8 0 01-7.44-5.08A42.18 42.18 0 00309.87 16H202.13a42.18 42.18 0 00-39.28 26.92 8 8 0 01-7.44 5.08H144a64 64 0 00-64 64v320a64 64 0 0064 64h224a64 64 0 0064-64V112a64 64 0 00-64-64zm-48.13 64H192.13a16 16 0 010-32h127.74a16 16 0 010 32z"></path></symbol>
<symbol id="icon-close" viewBox="0 0 512 512"><path fill="none" stroke="currentColor" stroke-linecap="round" stroke-linejoin="round" stroke-width="32" d="M368 368L144 144M368 144L144 368"></path></symbol>
<symbol id="icon-twitter" viewBox="0 0 512 512"><title>Twitter</title><path d="M496 109.5a201.8 201.8 0 01-56.55 15.3 97.51 97.51 0 0043.33-53.6 197.74 197.74 0 01-62.56 23.5A99.14 99.14 0 00348.31 64c-54.42 0-98.46 43.4-98.46 96.9a93.21 93.21 0 002.54 22.1 280.7 280.7 0 01-203-101.3A95.69 95.69 0 0036 130.4c0 33.6 17.53 63.3 44 80.7A97.5 97.5 0 0135.22 199v1.2c0 47 34 86.1 79 95a100.76 100.76 0 01-25.94 3.4 94.38 94.38 0 01-18.51-1.8c12.51 38.5 48.92 66.5 92.05 67.3A199.59 199.59 0 0139.5 405.6a203 203 0 01-23.5-1.4A278.68 278.68 0 00166.74 448c181.36 0 280.44-147.7 280.44-275.8 0-4.2-.11-8.4-.31-12.5A198.48 198.48 0 00496 109.5z"></path></symbol>
<symbol id="icon-whatsapp" viewBox="0 0 512 512"><title>Whatsapp</title><path d="M414.73 97.1A222.14 222.14 0 00256.94 32C134 32 33.92 131.58 33.87 254a220.61 220.61 0 0029.78 111L32 480l118.25-30.87a223.63 223.63 0 00106.6 27h.09c122.93 0 223-99.59 223.06-222A220.18 220.18 0 00414.73 97.1zM256.94 438.66h-.08a185.75 185.75 0 01-94.36-25.72l-6.77-4-70.17 18.32 18.73-68.09-4.41-7A183.46 183.46 0 0171.53 254c0-101.73 83.21-184.5 185.48-184.5a185 185 0 01185.33 184.64c-.04 101.74-83.21 184.52-185.4 184.52zm101.69-138.19c-5.57-2.78-33-16.2-38.08-18.05s-8.83-2.78-12.54 2.78-14.4 18-17.65 21.75-6.5 4.16-12.07 1.38-23.54-8.63-44.83-27.53c-16.57-14.71-27.75-32.87-31-38.42s-.35-8.56 2.44-11.32c2.51-2.49 5.57-6.48 8.36-9.72s3.72-5.56 5.57-9.26.93-6.94-.46-9.71-12.54-30.08-17.18-41.19c-4.53-10.82-9.12-9.35-12.54-9.52-3.25-.16-7-.2-10.69-.2a20.53 20.53 0 00-14.86 6.94c-5.11 5.56-19.51 19-19.51 46.28s20 53.68 22.76 57.38 39.3 59.73 95.21 83.76a323.11 323.11 0 0031.78 11.68c13.35 4.22 25.5 3.63 35.1 2.2 10.71-1.59 33-13.42 37.63-26.38s4.64-24.06 3.25-26.37-5.11-3.71-10.69-6.48z" fill-rule="evenodd"></path></symbol>
<symbol id="icon-telegram" viewBox="0 0 496 512"><title>Telegram</title><path d="M248,8C111.033,8,0,119.033,0,256S111.033,504,248,504,496,392.967,496,256,384.967,8,248,8ZM362.952,176.66c-3.732,39.215-19.881,134.378-28.1,178.3-3.476,18.584-10.322,24.816-16.948,25.425-14.4,1.326-25.338-9.517-39.287-18.661-21.827-14.308-34.158-23.215-55.346-37.177-24.485-16.135-8.612-25,5.342-39.5,3.652-3.793,67.107-61.51,68.335-66.746.153-.655.3-3.1-1.154-4.384s-3.59-.849-5.135-.5q-3.283.746-104.608,69.142-14.845,10.194-26.894,9.934c-8.855-.191-25.888-5.006-38.551-9.123-15.531-5.048-27.875-7.717-26.8-16.291q.84-6.7,18.45-13.7,108.446-47.248,144.628-62.3c68.872-28.647,83.183-33.623,92.511-33.789,2.052-.034,6.639.474,9.61,2.885a10.452,10.452,0,0,1,3.53,6.716A43.765,43.765,0,0,1,362.952,176.66Z"></path></symbol>
<symbol id="icon-link" viewBox="0 0 512 512"><title>Copy Link</title><path d="M200.66 352H144a96 96 0 010-192h55.41M312.59 160H368a96 96 0 010 192h-56.66M169.07 256h175.86" fill="none" stroke="currentColor" stroke-linecap="round" stroke-linejoin="round" stroke-width="48"></path></symbol>
<symbol id="icon-heart" viewBox="0 0 512 512"><title>Heart</title><path d="M256 448a32 32 0 01-18-5.57c-78.59-53.35-112.62-89.93-131.39-112.8-40-48.75-59.15-98.8-58.61-153C48.63 114.52 98.46 64 159.08 64c44.08 0 74.61 24.83 92.39 45.51a6 6 0 009.06 0C278.31 88.81 308.84 64 352.92 64c60.62 0 110.45 50.52 111.08 112.64.54 54.21-18.63 104.26-58.61 153-18.77 22.87-52.8 59.45-131.39 112.8a32 32 0 01-18 5.56z"></path></symbol>
</defs>
</svg>