<svg width="72" height="72" id="loading-spinner" xmlns="http://www.w3.org/2000/svg"><path d="M57.6 40.59a4.59 4.59 0 1 0 0-9.18 4.59 4.59 0 0 0 0 9.18Z" fill="#FA5252" fill-opacity=".125"/><path d="M47.837 54.71a4.86 4.86 0 1 0 6.873-6.873 4.86 4.86 0 0 0-6.873 6.873Z" fill="#FA5252" fill-opacity=".25"/><path d="M30.87 57.6a5.13 5.13 0 1 0 10.26 0 5.13 5.13 0 0 0-10.26 0Z" fill="#FA5252" fill-opacity=".375"/><path d="M16.908 47.455a5.4 5.4 0 1 0 7.637 7.637 5.4 5.4 0 0 0-7.637-7.637Z" fill="#FA5252" fill-opacity=".5"/><path d="M14.4 30.33a5.67 5.67 0 1 0 0 11.34 5.67 5.67 0 0 0 0-11.34Z" fill="#FA5252" fill-opacity=".625"/><path d="M24.927 16.526a5.94 5.94 0 1 0-8.4 8.401 5.94 5.94 0 0 0 8.4-8.4Z" fill="#FA5252" fill-opacity=".75"/><path d="M42.21 14.4a6.21 6.21 0 1 0-12.42 0 6.21 6.21 0 0 0 12.42 0Z" fill="#FA5252" fill-opacity=".875"/><path d="M55.855 25.309a6.48 6.48 0 1 0-9.164-9.165 6.48 6.48 0 0 0 9.164 9.165Z" fill="#FA5252"/></svg>