<svg width="72" height="72" id="loading-spinner" xmlns="http://www.w3.org/2000/svg">
<path d="M57.6 40.59C60.135 40.59 62.19 38.535 62.19 36C62.19 33.465 60.135 31.41 57.6 31.41C55.065 31.41 53.01 33.465 53.01 36C53.01 38.535 55.065 40.59 57.6 40.59Z" fill="#FA5252" fill-opacity="0.125"></path>
<path d="M47.8369 54.71C49.7348 56.608 52.812 56.608 54.71 54.71C56.6079 52.8121 56.6079 49.7349 54.71 47.837C52.812 45.939 49.7348 45.939 47.8369 47.837C45.9389 49.7349 45.9389 52.8121 47.8369 54.71Z" fill="#FA5252" fill-opacity="0.25"></path>
<path d="M30.87 57.6C30.87 60.4332 33.1668 62.73 36 62.73C38.8332 62.73 41.13 60.4332 41.13 57.6C41.13 54.7668 38.8332 52.47 36 52.47C33.1668 52.47 30.87 54.7668 30.87 57.6Z" fill="#FA5252" fill-opacity="0.375"></path>
<path d="M16.9082 47.4551C14.7993 49.564 14.7993 52.983 16.9082 55.0919C19.017 57.2007 22.4361 57.2007 24.5449 55.0919C26.6537 52.983 26.6537 49.564 24.5449 47.4551C22.4361 45.3463 19.017 45.3463 16.9082 47.4551Z" fill="#FA5252" fill-opacity="0.5"></path>
<path d="M14.3999 30.33C11.2685 30.33 8.72995 32.8686 8.72995 36C8.72995 39.1315 11.2685 41.67 14.3999 41.67C17.5314 41.67 20.0699 39.1315 20.0699 36C20.0699 32.8686 17.5314 30.33 14.3999 30.33Z" fill="#FA5252" fill-opacity="0.625"></path>
<path d="M24.9267 16.5263C22.6069 14.2066 18.8459 14.2066 16.5262 16.5263C14.2065 18.846 14.2065 22.607 16.5262 24.9267C18.8459 27.2464 22.6069 27.2464 24.9267 24.9267C27.2464 22.607 27.2464 18.846 24.9267 16.5263Z" fill="#FA5252" fill-opacity="0.75"></path>
<path d="M42.21 14.4C42.21 10.9703 39.4297 8.19 36 8.19C32.5703 8.19 29.79 10.9703 29.79 14.4C29.79 17.8297 32.5703 20.61 36 20.61C39.4297 20.61 42.21 17.8297 42.21 14.4Z" fill="#FA5252" fill-opacity="0.875"></path>
<path d="M55.8555 25.3086C58.3861 22.778 58.3861 18.675 55.8555 16.1444C53.3249 13.6139 49.222 13.6139 46.6914 16.1444C44.1608 18.675 44.1608 22.778 46.6914 25.3086C49.222 27.8392 53.3249 27.8392 55.8555 25.3086Z" fill="#FA5252"></path>
</svg>
